HIERARCHY
ROOT Hips
{
  OFFSET -61.8389 94.6712 34.9601
  CHANNELS 6 Xposition Yposition Zposition Zrotation Xrotation Yrotation
  JOINT Spine
  {
    OFFSET 0 8.09494 0
    CHANNELS 6 Xposition Yposition Zposition Zrotation Xrotation Yrotation
    JOINT Spine1
    {
      OFFSET 0 8.09494 0
      CHANNELS 6 Xposition Yposition Zposition Zrotation Xrotation Yrotation
      JOINT Spine2
      {
        OFFSET 0 8.09494 0
        CHANNELS 6 Xposition Yposition Zposition Zrotation Xrotation Yrotation
        JOINT Spine3
        {
          OFFSET 0 8.09494 0
          CHANNELS 6 Xposition Yposition Zposition Zrotation Xrotation Yrotation
          JOINT Neck
          {
            OFFSET 0 17.2017 0
            CHANNELS 6 Xposition Yposition Zposition Zrotation Xrotation Yrotation
            JOINT Head
            {
              OFFSET 0 10.9282 0
              CHANNELS 6 Xposition Yposition Zposition Zrotation Xrotation Yrotation
              End Site
              {
                OFFSET 0 20.4903 0
              }
            }
          }
          JOINT LeftShoulder
          {
            OFFSET 5 17 0
            CHANNELS 6 Xposition Yposition Zposition Zrotation Xrotation Yrotation
            JOINT LeftShoulder2
            {
              OFFSET 9 0 0
              CHANNELS 6 Xposition Yposition Zposition Zrotation Xrotation Yrotation
              JOINT LeftArm
              {
                OFFSET 9 0 0
                CHANNELS 6 Xposition Yposition Zposition Zrotation Xrotation Yrotation
                JOINT LeftForeArm
                {
                  OFFSET 0 -29.0233 -2
                  CHANNELS 6 Xposition Yposition Zposition Zrotation Xrotation Yrotation
                  JOINT LeftHand
                  {
                    OFFSET 0 -22.9767 2
                    CHANNELS 6 Xposition Yposition Zposition Zrotation Xrotation Yrotation
                    JOINT LeftHandThumb1
                    {
                      OFFSET -0.5 -1.5 2.65
                      CHANNELS 6 Xposition Yposition Zposition Zrotation Xrotation Yrotation
                      JOINT LeftHandThumb2
                      {
                        OFFSET 0 -3.8 3.7
                        CHANNELS 6 Xposition Yposition Zposition Zrotation Xrotation Yrotation
                        JOINT LeftHandThumb3
                        {
                          OFFSET 0 -3 2.7
                          CHANNELS 6 Xposition Yposition Zposition Zrotation Xrotation Yrotation
                          End Site
                          {
                            OFFSET 0 -2.3 1.8
                          }
                        }
                      }
                    }
                    JOINT LeftHandIndex
                    {
                      OFFSET 0 -1.9 1.6
                      CHANNELS 6 Xposition Yposition Zposition Zrotation Xrotation Yrotation
                      JOINT LeftHandIndex1
                      {
                        OFFSET 0 -8.3 1.9
                        CHANNELS 6 Xposition Yposition Zposition Zrotation Xrotation Yrotation
                        JOINT LeftHandIndex2
                        {
                          OFFSET 0 -4.5 0
                          CHANNELS 6 Xposition Yposition Zposition Zrotation Xrotation Yrotation
                          JOINT LeftHandIndex3
                          {
                            OFFSET 0 -3.4 0
                            CHANNELS 6 Xposition Yposition Zposition Zrotation Xrotation Yrotation
                            End Site
                            {
                              OFFSET 0 -2.6 0
                            }
                          }
                        }
                      }
                    }
                    JOINT LeftHandMiddle
                    {
                      OFFSET -0.25 -2.2 0.4
                      CHANNELS 6 Xposition Yposition Zposition Zrotation Xrotation Yrotation
                      JOINT LeftHandMiddle1
                      {
                        OFFSET 0 -8.3 1
                        CHANNELS 6 Xposition Yposition Zposition Zrotation Xrotation Yrotation
                        JOINT LeftHandMiddle2
                        {
                          OFFSET 0 -4.65 0
                          CHANNELS 6 Xposition Yposition Zposition Zrotation Xrotation Yrotation
                          JOINT LeftHandMiddle3
                          {
                            OFFSET 0 -3.3 0
                            CHANNELS 6 Xposition Yposition Zposition Zrotation Xrotation Yrotation
                            End Site
                            {
                              OFFSET 0 -2.7 0
                            }
                          }
                        }
                      }
                    }
                    JOINT LeftHandRing
                    {
                      OFFSET -0.5 -2.15 -0.8
                      CHANNELS 6 Xposition Yposition Zposition Zrotation Xrotation Yrotation
                      JOINT LeftHandRing1
                      {
                        OFFSET 0 -7.75 -0.2
                        CHANNELS 6 Xposition Yposition Zposition Zrotation Xrotation Yrotation
                        JOINT LeftHandRing2
                        {
                          OFFSET 0 -3.8 0
                          CHANNELS 6 Xposition Yposition Zposition Zrotation Xrotation Yrotation
                          JOINT LeftHandRing3
                          {
                            OFFSET 0 -3.4 0
                            CHANNELS 6 Xposition Yposition Zposition Zrotation Xrotation Yrotation
                            End Site
                            {
                              OFFSET 0 -2.6 0
                            }
                          }
                        }
                      }
                    }
                    JOINT LeftHandPinky
                    {
                      OFFSET -0.75 -1.75 -1.85
                      CHANNELS 6 Xposition Yposition Zposition Zrotation Xrotation Yrotation
                      JOINT LeftHandPinky1
                      {
                        OFFSET 0 -7.15 -1
                        CHANNELS 6 Xposition Yposition Zposition Zrotation Xrotation Yrotation
                        JOINT LeftHandPinky2
                        {
                          OFFSET 0 -3 0
                          CHANNELS 6 Xposition Yposition Zposition Zrotation Xrotation Yrotation
                          JOINT LeftHandPinky3
                          {
                            OFFSET 0 -2.35 0
                            CHANNELS 6 Xposition Yposition Zposition Zrotation Xrotation Yrotation
                            End Site
                            {
                              OFFSET 0 -2.1 0
                            }
                          }
                        }
                      }
                    }
                  }
                }
              }
            }
          }
          JOINT RightShoulder
          {
            OFFSET -5 17 0
            CHANNELS 6 Xposition Yposition Zposition Zrotation Xrotation Yrotation
            JOINT RightShoulder2
            {
              OFFSET -9 0 0
              CHANNELS 6 Xposition Yposition Zposition Zrotation Xrotation Yrotation
              JOINT RightArm
              {
                OFFSET -9 0 0
                CHANNELS 6 Xposition Yposition Zposition Zrotation Xrotation Yrotation
                JOINT RightForeArm
                {
                  OFFSET 0 -29.0233 -2
                  CHANNELS 6 Xposition Yposition Zposition Zrotation Xrotation Yrotation
                  JOINT RightHand
                  {
                    OFFSET 0 -22.9767 2
                    CHANNELS 6 Xposition Yposition Zposition Zrotation Xrotation Yrotation
                    JOINT RightHandThumb1
                    {
                      OFFSET 0.5 -1.5 2.65
                      CHANNELS 6 Xposition Yposition Zposition Zrotation Xrotation Yrotation
                      JOINT RightHandThumb2
                      {
                        OFFSET 0 -3.8 3.7
                        CHANNELS 6 Xposition Yposition Zposition Zrotation Xrotation Yrotation
                        JOINT RightHandThumb3
                        {
                          OFFSET 0 -3 2.7
                          CHANNELS 6 Xposition Yposition Zposition Zrotation Xrotation Yrotation
                          End Site
                          {
                            OFFSET 0 -2.3 1.8
                          }
                        }
                      }
                    }
                    JOINT RightHandIndex
                    {
                      OFFSET 0 -1.9 1.6
                      CHANNELS 6 Xposition Yposition Zposition Zrotation Xrotation Yrotation
                      JOINT RightHandIndex1
                      {
                        OFFSET 0 -8.3 1.9
                        CHANNELS 6 Xposition Yposition Zposition Zrotation Xrotation Yrotation
                        JOINT RightHandIndex2
                        {
                          OFFSET 0 -4.5 0
                          CHANNELS 6 Xposition Yposition Zposition Zrotation Xrotation Yrotation
                          JOINT RightHandIndex3
                          {
                            OFFSET 0 -3.4 0
                            CHANNELS 6 Xposition Yposition Zposition Zrotation Xrotation Yrotation
                            End Site
                            {
                              OFFSET 0 -2.6 0
                            }
                          }
                        }
                      }
                    }
                    JOINT RightHandMiddle
                    {
                      OFFSET 0.25 -2.2 0.4
                      CHANNELS 6 Xposition Yposition Zposition Zrotation Xrotation Yrotation
                      JOINT RightHandMiddle1
                      {
                        OFFSET 0 -8.3 1
                        CHANNELS 6 Xposition Yposition Zposition Zrotation Xrotation Yrotation
                        JOINT RightHandMiddle2
                        {
                          OFFSET 0 -4.65 0
                          CHANNELS 6 Xposition Yposition Zposition Zrotation Xrotation Yrotation
                          JOINT RightHandMiddle3
                          {
                            OFFSET 0 -3.3 0
                            CHANNELS 6 Xposition Yposition Zposition Zrotation Xrotation Yrotation
                            End Site
                            {
                              OFFSET 0 -2.7 0
                            }
                          }
                        }
                      }
                    }
                    JOINT RightHandRing
                    {
                      OFFSET 0.5 -2.15 -0.8
                      CHANNELS 6 Xposition Yposition Zposition Zrotation Xrotation Yrotation
                      JOINT RightHandRing1
                      {
                        OFFSET 0 -7.75 -0.2
                        CHANNELS 6 Xposition Yposition Zposition Zrotation Xrotation Yrotation
                        JOINT RightHandRing2
                        {
                          OFFSET 0 -3.8 0
                          CHANNELS 6 Xposition Yposition Zposition Zrotation Xrotation Yrotation
                          JOINT RightHandRing3
                          {
                            OFFSET 0 -3.4 0
                            CHANNELS 6 Xposition Yposition Zposition Zrotation Xrotation Yrotation
                            End Site
                            {
                              OFFSET 0 -2.6 0
                            }
                          }
                        }
                      }
                    }
                    JOINT RightHandPinky
                    {
                      OFFSET 0.75 -1.75 -1.85
                      CHANNELS 6 Xposition Yposition Zposition Zrotation Xrotation Yrotation
                      JOINT RightHandPinky1
                      {
                        OFFSET 0 -7.15 -1
                        CHANNELS 6 Xposition Yposition Zposition Zrotation Xrotation Yrotation
                        JOINT RightHandPinky2
                        {
                          OFFSET 0 -3 0
                          CHANNELS 6 Xposition Yposition Zposition Zrotation Xrotation Yrotation
                          JOINT RightHandPinky3
                          {
                            OFFSET 0 -2.35 0
                            CHANNELS 6 Xposition Yposition Zposition Zrotation Xrotation Yrotation
                            End Site
                            {
                              OFFSET 0 -2.1 0
                            }
                          }
                        }
                      }
                    }
                  }
                }
              }
            }
          }
        }
      }
    }
  }
  JOINT LeftUpLeg
  {
    OFFSET 14.5 0 0
    CHANNELS 6 Xposition Yposition Zposition Zrotation Xrotation Yrotation
    JOINT LeftLeg
    {
      OFFSET 0 -45.7849 -1
      CHANNELS 6 Xposition Yposition Zposition Zrotation Xrotation Yrotation
      JOINT LeftFoot
      {
        OFFSET 0 -41.7151 -2
        CHANNELS 6 Xposition Yposition Zposition Zrotation Xrotation Yrotation
        JOINT LeftToeBase
        {
          OFFSET 0 -7.5 12.5
          CHANNELS 6 Xposition Yposition Zposition Zrotation Xrotation Yrotation
          JOINT LeftFootToe
          {
            OFFSET 0 0 4
            CHANNELS 6 Xposition Yposition Zposition Zrotation Xrotation Yrotation
            End Site
            {
              OFFSET 0 0 0
            }
          }
        }
      }
    }
  }
  JOINT RightUpLeg
  {
    OFFSET -14.5 0 0
    CHANNELS 6 Xposition Yposition Zposition Zrotation Xrotation Yrotation
    JOINT RightLeg
    {
      OFFSET 0 -45.7849 -1
      CHANNELS 6 Xposition Yposition Zposition Zrotation Xrotation Yrotation
      JOINT RightFoot
      {
        OFFSET 0 -41.7151 -2
        CHANNELS 6 Xposition Yposition Zposition Zrotation Xrotation Yrotation
        JOINT RightToeBase
        {
          OFFSET 0 -7.5 12.5
          CHANNELS 6 Xposition Yposition Zposition Zrotation Xrotation Yrotation
          JOINT RightFootToe
          {
            OFFSET 0 0 4
            CHANNELS 6 Xposition Yposition Zposition Zrotation Xrotation Yrotation
            End Site
            {
              OFFSET 0 0 0
            }
          }
        }
      }
    }
  }
}
MOTION
Frames:	3
Frame Time:	0.0111111
0 95 0 0 0 -0 0 8.09494 0 -0 0 0.00993195 0 8.09494 0 0 0 -0 0 8.09494 0 0 0 -0 0 8.09494 0 0 0 -0 0 17.2017 0 0 0 -0 0 10.9282 0 0 0 -0 5 17 0 0 0 -0 9 0 4.33681e-19 0 0 -0 9 0 4.33681e-19 90.0002 0 -0 0 -29.0233 -2 6.26064e-21 3.10601e-18 -1.18485e-23 0 -22.9767 2 6.26064e-21 3.10601e-18 -1.18485e-23 -0.5 -1.5 2.65 6.26064e-21 3.10601e-18 -1.18485e-23 2.84217e-14 -3.8 3.7 6.26064e-21 3.10601e-18 -1.18485e-23 0 -3 2.7 6.26064e-21 3.10601e-18 -1.18485e-23 0 -1.9 1.6 6.26064e-21 3.10601e-18 -1.18485e-23 2.84217e-14 -8.3 1.9 6.26064e-21 3.10601e-18 -1.18485e-23 0 -4.5 4.44089e-16 6.26064e-21 3.10601e-18 -1.18485e-23 0 -3.4 0 6.26064e-21 3.10601e-18 -5.92424e-24 -0.25 -2.2 0.4 6.26064e-21 3.10601e-18 -1.18485e-23 2.84217e-14 -8.3 1 6.26064e-21 3.10601e-18 -1.18485e-23 -2.84217e-14 -4.65 -2.22045e-16 6.26064e-21 3.10601e-18 -1.18485e-23 2.84217e-14 -3.3 0 6.26064e-21 3.10601e-18 -5.92424e-24 -0.5 -2.15 -0.8 6.26064e-21 3.10601e-18 -1.18485e-23 0 -7.75 -0.2 6.26064e-21 3.10601e-18 -1.18485e-23 0 -3.8 2.22045e-16 6.26064e-21 3.10601e-18 -1.18485e-23 0 -3.4 0 6.26064e-21 3.10601e-18 -5.92424e-24 -0.75 -1.75 -1.85 6.26064e-21 3.10601e-18 -1.18485e-23 2.84217e-14 -7.15 -1 6.26064e-21 3.10601e-18 -1.18485e-23 0 -3 0 6.26064e-21 3.10601e-18 -1.18485e-23 -2.84217e-14 -2.35 4.44089e-16 6.26064e-21 3.10601e-18 -5.92424e-24 -5 17 0 0 0 -0 -9 0 -4.33681e-19 0 0 -0 -9 0 -4.33681e-19 -90.0002 0 -0 -2.84217e-14 -29.0233 -2 -6.26064e-21 -3.10601e-18 -1.18485e-23 2.84217e-14 -22.9767 2 -6.26064e-21 -3.10601e-18 -1.18485e-23 0.5 -1.5 2.65 -6.26064e-21 -3.10601e-18 -1.18485e-23 2.84217e-14 -3.8 3.7 -6.26064e-21 -3.10601e-18 -1.18485e-23 -2.84217e-14 -3 2.7 -6.26064e-21 -3.10601e-18 -1.18485e-23 0 -1.9 1.6 -6.26064e-21 -3.10601e-18 -1.18485e-23 -2.84217e-14 -8.3 1.9 -6.26064e-21 -3.10601e-18 -1.18485e-23 2.84217e-14 -4.5 -4.44089e-16 -6.26064e-21 -3.10601e-18 -1.18485e-23 -2.84217e-14 -3.4 0 -6.26064e-21 -3.10601e-18 -5.92424e-24 0.25 -2.2 0.4 -6.26064e-21 -3.10601e-18 -1.18485e-23 0 -8.3 1 -6.26064e-21 -3.10601e-18 -1.18485e-23 0 -4.65 2.22045e-16 -6.26064e-21 -3.10601e-18 -1.18485e-23 0 -3.3 0 -6.26064e-21 -3.10601e-18 -5.92424e-24 0.5 -2.15 -0.8 -6.26064e-21 -3.10601e-18 -1.18485e-23 0 -7.75 -0.2 -6.26064e-21 -3.10601e-18 -1.18485e-23 0 -3.8 0 -6.26064e-21 -3.10601e-18 -1.18485e-23 0 -3.4 0 -6.26064e-21 -3.10601e-18 -5.92424e-24 0.75 -1.75 -1.85 -6.26064e-21 -3.10601e-18 -1.18485e-23 2.84217e-14 -7.15 -1 -6.26064e-21 -3.10601e-18 -1.18485e-23 0 -3 0 -6.26064e-21 -3.10601e-18 -1.18485e-23 -2.84217e-14 -2.35 0 -6.26064e-21 -3.10601e-18 -5.92424e-24 14.5 0 0 0 0 -0 0 -45.7849 -1 0 0 -0 0 -41.7151 -2 0 0 -0 0 -7.5 12.5 0 0 -0 0 0 4 0 0 -0 -14.5 0 0 0 0 -0 0 -45.7849 -1 0 0 -0 0 -41.7151 -2 0 0 -0 0 -7.5 12.5 0 0 -0 0 0 4 0 0 -0 
-62.7115 94.7351 35.0022 0.338802 -0.450901 126.921 -7.10543e-15 8.09494 -1.42109e-14 0.00986115 0.119181 0.00993197 0 8.09494 0 0.275769 -0.0566207 -0.65317 3.55271e-15 8.09494 0 0.137967 -0.0279177 -0.326618 7.10543e-15 8.09494 0 0.137964 -0.0279171 -0.326608 1.06581e-14 17.2017 -1.42109e-14 -1.04053 0.100771 3.78582 1.06581e-14 10.9282 1.42109e-14 -0.305008 -1.33417 8.82323 5 17 0 -0.422989 0.77526 3.1948 9 0 0 0.0325442 0.278831 -2.33797 9 0 1.42109e-14 -8.18016 -4.35139 -4.03972 -3.55271e-15 -29.0233 -2 7.44915 2.5114 10.8769 7.10543e-15 -22.9767 2 3.56521 0.414931 -3.13074 -0.5 -1.5 2.65 -0.173712 -8.25618 -5.71091 -7.10543e-15 -3.8 3.7 -0.0458582 16.9285 0.0144651 7.10543e-15 -3 2.7 1.12718e-15 1.99305 -9.54744e-15 7.10543e-15 -1.9 1.6 -1.98785e-16 1.98785e-16 6.36111e-15 0 -8.3 1.9 -0.125849 3.03503 6.37004e-15 0 -4.5 0 -4.78051 0 -1.27222e-14 0 -3.4 1.42109e-14 -4.48568 0 3.18055e-15 -0.25 -2.2 0.4 -1.98785e-16 1.98785e-16 6.36111e-15 0 -8.3 1 -1.36109 3.40964 0.0645672 0 -4.65 1.42109e-14 -3.75144 -3.97569e-16 -0 7.10543e-15 -3.3 -1.42109e-14 -3.56728 -7.95139e-16 6.36111e-15 -0.5 -2.15 -0.8 -1.98785e-16 1.98785e-16 6.36111e-15 7.10543e-15 -7.75 -0.2 -3.82926 4.11124 0.199774 -7.10543e-15 -3.8 -1.42109e-14 -1.9678 -1.19271e-15 -0 -7.10543e-15 -3.4 0 -1.91593 -7.95139e-16 3.18055e-15 -0.75 -1.75 -1.85 -1.98785e-16 1.98785e-16 6.36111e-15 0 -7.15 -1 -5.09799 4.44963 0.279888 0 -3 0 -2.103 7.95139e-16 -6.36111e-15 1.06581e-14 -2.35 0 -2.04386 -7.95139e-16 9.54166e-15 -5 17 -1.42109e-14 0.737953 -1.25613 3.88916 -9 2.84217e-14 0 -0.526253 -0.217883 -3.5054 -9 2.84217e-14 -1.42109e-14 -1.46189 0.743315 0.969145 -3.55271e-15 -29.0233 -2 0.230752 -1.80079 -2.72933 -7.10543e-15 -22.9767 2 2.22097 1.61011 -0.3205 0.5 -1.5 2.65 -1.41533 -3.40015 3.05938 -3.55271e-15 -3.8 3.7 0.028493 4.32475 -3.18964e-15 3.55271e-15 -3 2.7 -6.26176e-16 6.04281 1.27933e-14 0 -1.9 1.6 1.98785e-16 0 -3.18055e-15 -7.10543e-15 -8.3 1.9 6.10668 7.65133 -0.451579 0 -4.5 -1.42109e-14 2.91869 -1.98785e-15 -3.18055e-15 -7.10543e-15 -3.4 -1.42109e-14 2.80602 2.38542e-15 9.54166e-15 0.25 -2.2 0.4 1.98785e-16 0 -3.18055e-15 -7.10543e-15 -8.3 1 4.56096 6.40741 -0.291216 7.10543e-15 -4.65 0 3.9814 -1.19271e-15 3.18055e-15 0 -3.3 0 3.77466 -7.95139e-16 -6.36111e-15 0.5 -2.15 -0.8 1.98785e-16 0 -3.18055e-15 0 -7.75 -0.2 1.59551 4.00807 -0.078361 3.55271e-15 -3.8 0 4.0078 0 -9.54166e-15 0 -3.4 0 3.79838 -2.38542e-15 -1.59028e-14 0.75 -1.75 -1.85 1.98785e-16 0 -3.18055e-15 -3.55271e-15 -7.15 -1 0.105284 2.79134 -0.0184261 0 -3 0 6.15389 -1.19271e-15 6.36111e-15 7.10543e-15 -2.35 -1.42109e-14 5.67465 7.95139e-16 -0 14.5 0 0 2.46807 -2.87699 5.17619 0 -45.7849 -1 -0.00754033 8.3188 0.23724 0 -41.7151 -2 -1.65777 -5.27297 -6.64758 -7.10543e-15 -7.5 12.5 -4.85314e-20 4.85314e-20 9.54166e-15 -3.55271e-15 2.71051e-20 4 4.83184 -0.778333 -0.404772 -14.5 0 -1.42109e-14 -0.513013 -4.0325 -2.60353 0 -45.7849 -1 0.00584017 5.60456 -0.723054 -7.10543e-15 -41.7151 -2 0.90699 -1.51586 0.996799 3.55271e-15 -7.5 12.5 9.70628e-20 -9.70628e-20 -6.36111e-15 0 0 4 -3.52984 1.0021 -8.21823 
-62.6948 94.7345 34.9984 0.340015 -0.452491 126.923 0 8.09494 0 0.0117122 0.113846 0.00993196 -3.55271e-15 8.09494 0 0.275425 -0.0539827 -0.653918 -3.55271e-15 8.09494 -1.42109e-14 0.137791 -0.0265988 -0.326985 1.06581e-14 8.09494 -1.42109e-14 0.137789 -0.0265982 -0.326974 7.10543e-15 17.2017 0 -1.04112 0.097797 3.77788 3.55271e-15 10.9282 -1.42109e-14 -0.306675 -1.31858 8.80489 5 17 0 -0.426255 0.776278 3.19784 9 2.84217e-14 0 0.0335279 0.277258 -2.33876 9 -2.84217e-14 -1.42109e-14 -8.2154 -4.34053 -3.9486 8.88178e-15 -29.0233 -2 7.49971 2.50096 10.9975 0 -22.9767 2 3.55579 0.403068 -3.0492 -0.5 -1.5 2.65 -0.191955 -8.24209 -5.71975 -7.10543e-15 -3.8 3.7 -0.0459159 16.9433 0.0144868 0 -3 2.7 -7.95139e-16 1.99299 -0 0 -1.9 1.6 -4.41391e-32 3.97569e-16 6.36111e-15 0 -8.3 1.9 -0.125478 3.03057 1.274e-14 0 -4.5 0 -4.7791 -3.97569e-16 3.18055e-15 -3.55271e-15 -3.4 0 -4.48444 -1.59028e-15 1.59028e-14 -0.25 -2.2 0.4 -4.41391e-32 3.97569e-16 6.36111e-15 7.10543e-15 -8.3 1 -1.364 3.40321 0.06456 7.10543e-15 -4.65 0 -3.77909 3.97569e-16 1.27222e-14 0 -3.3 0 -3.59227 0 -0 -0.5 -2.15 -0.8 -4.41391e-32 3.97569e-16 6.36111e-15 -7.10543e-15 -7.75 -0.2 -3.83869 4.10014 0.199724 7.10543e-15 -3.8 1.42109e-14 -1.97861 0 3.18055e-15 0 -3.4 -1.42109e-14 -1.92618 0 -9.54166e-15 -0.75 -1.75 -1.85 -4.41391e-32 3.97569e-16 6.36111e-15 -7.10543e-15 -7.15 -1 -5.11071 4.43617 0.279779 0 -3 0 -2.11337 7.95139e-16 -0 0 -2.35 -1.42109e-14 -2.05365 0 -0 -5 17 0 0.733903 -1.26396 3.88511 -9 -2.84217e-14 0 -0.523636 -0.219953 -3.49891 -9 2.84217e-14 -1.42109e-14 -1.45725 0.74729 0.950035 -1.06581e-14 -29.0233 -2 0.241951 -1.82592 -2.72555 0 -22.9767 2 2.22753 1.60156 -0.324217 0.5 -1.5 2.65 -1.41732 -3.40415 3.05747 -3.55271e-15 -3.8 3.7 0.0284924 4.32878 6.37931e-15 0 -3 2.7 2.84523e-16 6.04256 3.19832e-15 -7.10543e-15 -1.9 1.6 -1.98785e-16 1.98785e-16 -3.18055e-15 0 -8.3 1.9 6.1059 7.64349 -0.451031 7.10543e-15 -4.5 0 2.91746 7.95139e-16 -6.36111e-15 0 -3.4 0 2.80487 7.95139e-16 -0 0.25 -2.2 0.4 -1.98785e-16 1.98785e-16 -3.18055e-15 0 -8.3 1 4.5604 6.40081 -0.290867 0 -4.65 0 3.98009 3.97569e-16 -9.54166e-15 0 -3.3 0 3.77348 -1.59028e-15 -0 0.5 -2.15 -0.8 -1.98785e-16 1.98785e-16 -3.18055e-15 0 -7.75 -0.2 1.59515 4.0036 -0.0782347 3.55271e-15 -3.8 0 4.0087 -3.97569e-16 -3.18055e-15 0 -3.4 0 3.79919 7.95139e-16 1.27222e-14 0.75 -1.75 -1.85 -1.98785e-16 1.98785e-16 -3.18055e-15 -7.10543e-15 -7.15 -1 0.105033 2.78803 -0.0183623 7.10543e-15 -3 0 6.15574 -7.95139e-16 -3.18055e-15 0 -2.35 0 5.67623 7.95139e-16 6.36111e-15 14.5 -1.42109e-14 0 2.47604 -2.86626 5.19214 0 -45.7849 -1 -0.00750104 8.31745 0.235864 7.10543e-15 -41.7151 -2 -1.66389 -5.29157 -6.66414 0 -7.5 12.5 -7.76503e-19 1.55301e-18 3.18055e-15 0 1.73472e-18 4 4.83791 -0.767476 -0.405405 -14.5 -1.42109e-14 0 -0.506827 -4.027 -2.59883 3.55271e-15 -45.7849 -1 0.00590408 5.6154 -0.723493 0 -41.7151 -2 0.902607 -1.52668 0.986959 0 -7.5 12.5 -3.88251e-19 0 3.18055e-15 0 -8.67362e-19 4 -3.52419 0.999891 -8.21743 
